<svg width="28" height="26" viewBox="0 0 28 26" fill="none" xmlns="http://www.w3.org/2000/svg">
<g id="emojione-monotone:door" clip-path="url(#clip0_56_117)">
<path id="Vector" d="M25.8948 24.0451V11.858C25.8948 -2.98349 2.10569 -2.75477 2.10569 11.858V24.0447H0.875V25.1875H27.125V24.0447L25.8948 24.0451ZM23.8293 24.0451H4.17156V12.868C4.17156 -0.533798 23.8293 -0.743423 23.8293 12.868V24.0451Z" fill="#000AFF" fill-opacity="0.95"/>
<path id="Vector_2" d="M6.03359 12.2952H12.8582V4.7796C9.43647 5.25167 6.30266 7.77123 6.03359 12.2952ZM6.01172 14.4179H12.8577V22.0148H6.01172V14.4179ZM15.1437 4.76782V12.2952H20.136V14.4179H15.1437V22.0148H21.9892V17.5176H23.4177V11.4238H21.8798C21.291 7.38407 18.344 5.17529 15.1437 4.76782ZM20.5463 11.995H23.0073V16.9464H20.5463V11.995Z" fill="#000AFF" fill-opacity="0.95"/>
<path id="Vector_3" d="M22.1867 15.1815C22.1869 15.1163 22.1692 15.0521 22.1352 14.9951C22.1011 14.9381 22.0518 14.8901 21.9921 14.8558C21.9324 14.8215 21.8642 14.8021 21.794 14.7992C21.7238 14.7964 21.6541 14.8104 21.5914 14.8398C21.5287 14.8691 21.4752 14.913 21.4359 14.967C21.3967 15.0211 21.3731 15.0837 21.3673 15.1487C21.3615 15.2136 21.3738 15.2789 21.403 15.3382C21.4322 15.3976 21.4772 15.4489 21.5339 15.4874L21.3624 16.5051H22.1902L22.0187 15.4874C22.0706 15.4524 22.113 15.4064 22.1421 15.3532C22.1713 15.3 22.1866 15.2412 22.1867 15.1815ZM21.7767 12.1964C21.464 12.1964 21.1641 12.3118 20.943 12.5171C20.7219 12.7224 20.5977 13.0009 20.5977 13.2913C20.6079 13.5751 20.7365 13.8442 20.9564 14.0417C21.1762 14.2392 21.4702 14.3496 21.7761 14.3496C22.082 14.3496 22.3759 14.2392 22.5958 14.0417C22.8156 13.8442 22.9443 13.5751 22.9545 13.2913C22.9546 13.1475 22.9243 13.0052 22.8652 12.8724C22.8061 12.7395 22.7194 12.6188 22.61 12.5172C22.5006 12.4155 22.3707 12.3348 22.2277 12.2798C22.0848 12.2247 21.9315 12.1964 21.7767 12.1964ZM21.7767 14.0522C21.5592 14.0523 21.3505 13.9721 21.1965 13.8293C21.0426 13.6866 20.9561 13.4929 20.956 13.2908C20.9559 13.0888 21.0422 12.895 21.1959 12.7521C21.3497 12.6092 21.5583 12.5288 21.7758 12.5287C21.8836 12.5287 21.9902 12.5483 22.0898 12.5866C22.1893 12.6248 22.2798 12.6808 22.356 12.7515C22.4322 12.8222 22.4927 12.9062 22.534 12.9986C22.5753 13.091 22.5965 13.19 22.5966 13.29C22.5966 13.3901 22.5755 13.4891 22.5343 13.5816C22.4931 13.674 22.4328 13.758 22.3566 13.8288C22.2805 13.8995 22.1901 13.9557 22.0906 13.994C21.9911 14.0324 21.8844 14.0521 21.7767 14.0522Z" fill="#000AFF" fill-opacity="0.95"/>
</g>
<defs>
<clipPath id="clip0_56_117">
<rect width="28" height="26" fill="white"/>
</clipPath>
</defs>
</svg>
