<svg width="29" height="26" viewBox="0 0 29 26" fill="none" xmlns="http://www.w3.org/2000/svg">
<g id="noto-v1:mobile-phone">
<path id="Vector" d="M19.989 1.28577C19.0309 0.899834 16.2356 0.654053 14.4618 0.654053C12.6902 0.654053 9.89039 0.899834 8.93453 1.28577C7.99676 1.66358 7.61938 2.41108 7.61938 3.11187V22.8861C7.61938 23.5889 7.99676 24.3344 8.93453 24.7122C9.89039 25.0981 12.6902 25.3439 14.4618 25.3439C16.2356 25.3439 19.0309 25.0981 19.989 24.7122C20.9268 24.3344 21.3042 23.5869 21.3042 22.8861V3.1139C21.3042 2.41108 20.9268 1.66562 19.989 1.28577Z" fill="#000AFF"/>
<path id="Vector_2" d="M15.7205 2.18349H13.2055C13.1431 2.18349 13.0834 2.16123 13.0393 2.12161C12.9952 2.082 12.9705 2.02826 12.9705 1.97224C12.9705 1.91621 12.9952 1.86248 13.0393 1.82286C13.0834 1.78324 13.1431 1.76099 13.2055 1.76099H15.7205C15.8516 1.76099 15.9555 1.85442 15.9555 1.97224C15.9555 2.08802 15.8516 2.18349 15.7205 2.18349Z" fill="white"/>
<path id="Vector_3" d="M18.9565 2.535C19.2049 2.535 19.4062 2.35403 19.4062 2.13078C19.4062 1.90754 19.2049 1.72656 18.9565 1.72656C18.7082 1.72656 18.5068 1.90754 18.5068 2.13078C18.5068 2.35403 18.7082 2.535 18.9565 2.535Z" fill="white"/>
<path id="Vector_4" d="M8.86011 4.61304H20.0615V21.2794H8.86011V4.61304Z" fill="url(#paint0_linear_44_958)"/>
<g id="Group">
<path id="Vector_5" d="M10.9302 22.1263V22.2685L10.5845 22.0431L10.9302 21.8156V21.9577H11.1291C11.5177 21.9577 11.7686 22.0613 11.7686 22.362C11.7686 22.6646 11.5177 22.7682 11.1291 22.7682H10.6816V22.5996H11.1291C11.459 22.5996 11.581 22.5346 11.581 22.362C11.581 22.1913 11.4612 22.1263 11.1291 22.1263H10.9302ZM15.1197 22.7113H13.8249V22.1243L14.4734 21.8785L15.122 22.1243V22.7113H15.1197ZM14.0124 22.5407H14.9321V22.234L14.4734 22.0593L14.0124 22.234V22.5407ZM18.2019 22.7113H17.1173V22.0938H18.2019V22.7113ZM17.3071 22.5407H18.0166V22.2624H17.3071V22.5407Z" fill="white"/>
<path id="Vector_6" d="M18.5093 22.3641H18.3217V21.9984H17.5195V21.8298H18.5093V22.3641Z" fill="white"/>
</g>
</g>
<defs>
<linearGradient id="paint0_linear_44_958" x1="14.4619" y1="21.2809" x2="14.4619" y2="4.61385" gradientUnits="userSpaceOnUse">
<stop stop-color="white"/>
<stop offset="1" stop-color="#5CE1E1"/>
</linearGradient>
</defs>
</svg>
