<svg width="60" height="60" viewBox="0 0 60 60" fill="none" xmlns="http://www.w3.org/2000/svg">
<g id="quote.svg" clip-path="url(#clip0_44_645)">
<g id="Calque 2">
<g id="Calque 1">
<path id="Vector" d="M15 31H21C21.5571 31.7428 21.8964 32.6262 21.9798 33.551C22.0632 34.4758 21.8874 35.4055 21.4721 36.2361C21.0569 37.0666 20.4185 37.7651 19.6287 38.2533C18.8388 38.7414 17.9286 39 17 39V43C24.25 43 28 39.57 28 31V21H15V31ZM32 21V31H38C38.5571 31.7428 38.8964 32.6262 38.9798 33.551C39.0632 34.4758 38.8874 35.4055 38.4721 36.2361C38.0569 37.0666 37.4185 37.7651 36.6287 38.2533C35.8388 38.7414 34.9286 39 34 39V43C41.25 43 45 39.57 45 31V21H32Z" fill="#123451"/>
</g>
</g>
</g>
<defs>
<clipPath id="clip0_44_645">
<rect width="60" height="60" fill="white"/>
</clipPath>
</defs>
</svg>
