<svg width="87" height="90" viewBox="0 0 87 90" fill="none" xmlns="http://www.w3.org/2000/svg">
<g id="Rectangle 5" filter="url(#filter0_d_54_50)">
<path d="M10.7654 66.3903C2.60518 58.946 2.02478 46.296 9.46908 38.1357L37.4731 7.4384C44.9174 -0.721861 57.5674 -1.30227 65.7277 6.14202L76.4196 15.8959C84.5799 23.3402 85.1603 35.9902 77.716 44.1505L49.712 74.8478C42.2677 83.0081 29.6177 83.5885 21.4574 76.1442L10.7654 66.3903Z" fill="url(#paint0_angular_54_50)" fill-opacity="0.95" shape-rendering="crispEdges"/>
<path d="M14.1352 62.6964C8.01502 57.1132 7.57972 47.6257 13.1629 41.5055L41.167 10.8082C46.7502 4.68797 56.2377 4.25267 62.3579 9.83589L73.0499 19.5898C79.1701 25.173 79.6054 34.6605 74.0221 40.7807L46.0181 71.478C40.4349 77.5982 30.9474 78.0335 24.8272 72.4503L14.1352 62.6964Z" stroke="url(#paint1_angular_54_50)" stroke-width="10" shape-rendering="crispEdges"/>
</g>
<defs>
<filter id="filter0_d_54_50" x="0.244385" y="0.917358" width="86.6965" height="88.4515" filterUnits="userSpaceOnUse" color-interpolation-filters="sRGB">
<feFlood flood-opacity="0" result="BackgroundImageFix"/>
<feColorMatrix in="SourceAlpha" type="matrix" values="0 0 0 0 0 0 0 0 0 0 0 0 0 0 0 0 0 0 127 0" result="hardAlpha"/>
<feOffset dy="4"/>
<feGaussianBlur stdDeviation="2"/>
<feComposite in2="hardAlpha" operator="out"/>
<feColorMatrix type="matrix" values="0 0 0 0 0 0 0 0 0 0 0 0 0 0 0 0 0 0 0.25 0"/>
<feBlend mode="normal" in2="BackgroundImageFix" result="effect1_dropShadow_54_50"/>
<feBlend mode="normal" in="SourceGraphic" in2="effect1_dropShadow_54_50" result="shape"/>
</filter>
<radialGradient id="paint0_angular_54_50" cx="0" cy="0" r="1" gradientUnits="userSpaceOnUse" gradientTransform="translate(54.4998 33.5) rotate(-3.27049) scale(17.5285 13.028)">
<stop offset="0.396875" stop-color="#123451"/>
<stop offset="1" stop-color="#507D9D"/>
</radialGradient>
<radialGradient id="paint1_angular_54_50" cx="0" cy="0" r="1" gradientUnits="userSpaceOnUse" gradientTransform="translate(43.9998 41) rotate(-80.9915) scale(41.512 62.1483)">
<stop stop-color="white" stop-opacity="0.72"/>
<stop offset="0.5" stop-color="#222543" stop-opacity="0.63"/>
<stop offset="1" stop-color="white" stop-opacity="0.74"/>
</radialGradient>
</defs>
</svg>
